<?xml version="1.0" encoding="UTF-8" standalone="no"?>
<!-- Created with Inkscape (http://www.inkscape.org/) -->

<svg
   xmlns:dc="http://purl.org/dc/elements/1.1/"
   xmlns:cc="http://creativecommons.org/ns#"
   xmlns:rdf="http://www.w3.org/1999/02/22-rdf-syntax-ns#"
   xmlns:svg="http://www.w3.org/2000/svg"
   xmlns="http://www.w3.org/2000/svg"
   xmlns:sodipodi="http://sodipodi.sourceforge.net/DTD/sodipodi-0.dtd"
   xmlns:inkscape="http://www.inkscape.org/namespaces/inkscape"
   width="210mm"
   height="297mm"
   viewBox="0 0 744.09448819 1052.3622047"
   id="svg2"
   version="1.1"
   inkscape:version="0.91 r"
   sodipodi:docname="icon_Ste.svg">
  <defs
     id="defs4">
    <clipPath
       clipPathUnits="userSpaceOnUse"
       id="clipPath6709-4">
      <path
         id="path6711-1"
         d="m 306.18911,-225.47037 a 75,75 0 0 1 -75,75 75,75 0 0 1 -75,-75 75,75 0 0 1 75,-75 75,75 0 0 1 75,75 z"
         style="opacity:1;fill:#0044aa;fill-opacity:1;stroke:none;stroke-opacity:1"
         inkscape:connector-curvature="0" />
    </clipPath>
    <clipPath
       clipPathUnits="userSpaceOnUse"
       id="clipPath6705-1">
      <path
         id="path6707-3"
         d="m 306.18911,-225.47037 a 75,75 0 0 1 -75,75 75,75 0 0 1 -75,-75 75,75 0 0 1 75,-75 75,75 0 0 1 75,75 z"
         style="opacity:1;fill:#0044aa;fill-opacity:1;stroke:none;stroke-opacity:1"
         inkscape:connector-curvature="0" />
    </clipPath>
    <clipPath
       clipPathUnits="userSpaceOnUse"
       id="clipPath6709-4-4">
      <path
         id="path6711-1-3"
         d="m 306.18911,-225.47037 a 75,75 0 0 1 -75,75 75,75 0 0 1 -75,-75 75,75 0 0 1 75,-75 75,75 0 0 1 75,75 z"
         style="opacity:1;fill:#0044aa;fill-opacity:1;stroke:none;stroke-opacity:1"
         inkscape:connector-curvature="0" />
    </clipPath>
    <mask
       maskUnits="userSpaceOnUse"
       id="mask8035">
      <g
         id="g8037"
         transform="matrix(1.6292038,0,0,1.829405,28.799424,-390.82659)"
         style="fill:#ffffff">
        <g
           transform="matrix(1.1627599,0,0,1.1627599,26.372094,-72.011207)"
           id="g8039"
           style="fill:#ffffff">
          <path
             style="opacity:1;fill:#ffffff;fill-opacity:1;stroke:none;stroke-opacity:1"
             d="m 45.029526,82.603333 35.206691,0 0,0.442916 -35.206691,0 z"
             id="path8041"
             inkscape:connector-curvature="0" />
          <path
             style="opacity:1;fill:#ffffff;fill-opacity:1;stroke:none;stroke-opacity:1"
             d="m 45.014767,84.926178 16.995044,0 0,0.22146 -16.995044,0 z"
             id="path8043"
             inkscape:connector-curvature="0" />
          <path
             style="opacity:1;fill:#ffffff;fill-opacity:1;stroke:none;stroke-opacity:1"
             d="m 44.967522,87 17.068863,0 0,0.22146 -17.068863,0 z"
             id="path8045"
             inkscape:connector-curvature="0" />
          <path
             style="opacity:1;fill:#ffffff;fill-opacity:1;stroke:none;stroke-opacity:1"
             d="m 44.947838,88.959648 17.047243,0 0,0.22146 -17.047243,0 z"
             id="path8047"
             inkscape:connector-curvature="0" />
          <path
             style="opacity:1;fill:#ffffff;fill-opacity:1;stroke:none;stroke-opacity:1"
             d="m 44.968506,90.959648 25.093504,0 0,0.22146 -25.093504,0 z"
             id="path8049"
             inkscape:connector-curvature="0" />
          <path
             style="opacity:1;fill:#ffffff;fill-opacity:1;stroke:none;stroke-opacity:1"
             d="m 45.006527,92.961891 16.995045,0 0,0.22146 -16.995045,0 z"
             id="path8051"
             inkscape:connector-curvature="0" />
          <path
             style="opacity:1;fill:#ffffff;fill-opacity:1;stroke:none;stroke-opacity:1"
             d="m 44.959282,95.035713 17.068863,0 0,0.22146 -17.068863,0 z"
             id="path8053"
             inkscape:connector-curvature="0" />
          <path
             style="opacity:1;fill:#ffffff;fill-opacity:1;stroke:none;stroke-opacity:1"
             d="m 44.939598,96.995361 17.047243,0 0,0.22146 -17.047243,0 z"
             id="path8055"
             inkscape:connector-curvature="0" />
        </g>
        <g
           transform="matrix(1.1627599,0,0,1.1627599,26.372094,-73.103691)"
           id="g8057"
           style="fill:#ffffff">
          <path
             style="opacity:1;fill:#ffffff;fill-opacity:1;stroke:none;stroke-opacity:1"
             d="m 45.095455,100.07587 35.206692,0 0,0.44291 -35.206692,0 z"
             id="path8059"
             inkscape:connector-curvature="0" />
          <path
             style="opacity:1;fill:#ffffff;fill-opacity:1;stroke:none;stroke-opacity:1"
             d="m 45.080696,102.39871 16.995045,0 0,0.22146 -16.995045,0 z"
             id="path8061"
             inkscape:connector-curvature="0" />
          <path
             style="opacity:1;fill:#ffffff;fill-opacity:1;stroke:none;stroke-opacity:1"
             d="m 45.033451,104.47253 17.068863,0 0,0.22146 -17.068863,0 z"
             id="path8063"
             inkscape:connector-curvature="0" />
          <path
             style="opacity:1;fill:#ffffff;fill-opacity:1;stroke:none;stroke-opacity:1"
             d="m 45.013767,106.43218 17.047243,0 0,0.22146 -17.047243,0 z"
             id="path8065"
             inkscape:connector-curvature="0" />
          <path
             style="opacity:1;fill:#ffffff;fill-opacity:1;stroke:none;stroke-opacity:1"
             d="m 45.034435,108.43218 25.093504,0 0,0.22146 -25.093504,0 z"
             id="path8067"
             inkscape:connector-curvature="0" />
          <path
             style="opacity:1;fill:#ffffff;fill-opacity:1;stroke:none;stroke-opacity:1"
             d="m 45.072456,110.43443 16.995045,0 0,0.22146 -16.995045,0 z"
             id="path8069"
             inkscape:connector-curvature="0" />
          <path
             style="opacity:1;fill:#ffffff;fill-opacity:1;stroke:none;stroke-opacity:1"
             d="m 45.025211,112.50825 17.068863,0 0,0.22146 -17.068863,0 z"
             id="path8071"
             inkscape:connector-curvature="0" />
          <path
             style="opacity:1;fill:#ffffff;fill-opacity:1;stroke:none;stroke-opacity:1"
             d="m 45.005527,114.4679 17.047244,0 0,0.22146 -17.047244,0 z"
             id="path8073"
             inkscape:connector-curvature="0" />
        </g>
        <g
           transform="matrix(1.1627599,0,0,1.1627599,26.493481,-73.589239)"
           id="g8075"
           style="fill:#ffffff">
          <path
             style="opacity:1;fill:#ffffff;fill-opacity:1;stroke:none;stroke-opacity:1"
             d="m 44.875683,116.94399 35.206692,0 0,0.44292 -35.206692,0 z"
             id="path8077"
             inkscape:connector-curvature="0" />
          <path
             style="opacity:1;fill:#ffffff;fill-opacity:1;stroke:none;stroke-opacity:1"
             d="m 44.860924,119.26684 16.995044,0 0,0.22146 -16.995044,0 z"
             id="path8079"
             inkscape:connector-curvature="0" />
          <path
             style="opacity:1;fill:#ffffff;fill-opacity:1;stroke:none;stroke-opacity:1"
             d="m 44.813679,121.34066 17.068863,0 0,0.22146 -17.068863,0 z"
             id="path8081"
             inkscape:connector-curvature="0" />
          <path
             style="opacity:1;fill:#ffffff;fill-opacity:1;stroke:none;stroke-opacity:1"
             d="m 44.793995,123.30031 17.047243,0 0,0.22146 -17.047243,0 z"
             id="path8083"
             inkscape:connector-curvature="0" />
          <path
             style="opacity:1;fill:#ffffff;fill-opacity:1;stroke:none;stroke-opacity:1"
             d="m 44.814663,125.30031 25.093504,0 0,0.22146 -25.093504,0 z"
             id="path8085"
             inkscape:connector-curvature="0" />
          <path
             style="opacity:1;fill:#ffffff;fill-opacity:1;stroke:none;stroke-opacity:1"
             d="m 44.852684,127.30255 16.995045,0 0,0.22146 -16.995045,0 z"
             id="path8087"
             inkscape:connector-curvature="0" />
          <path
             style="opacity:1;fill:#ffffff;fill-opacity:1;stroke:none;stroke-opacity:1"
             d="m 44.805439,129.37637 17.068863,0 0,0.22146 -17.068863,0 z"
             id="path8089"
             inkscape:connector-curvature="0" />
          <path
             style="opacity:1;fill:#ffffff;fill-opacity:1;stroke:none;stroke-opacity:1"
             d="m 44.785755,131.33603 17.047243,0 0,0.22146 -17.047243,0 z"
             id="path8091"
             inkscape:connector-curvature="0" />
        </g>
        <g
           id="g8093"
           transform="matrix(1.1627599,0,0,1.1627599,26.252768,-14.633434)"
           style="fill:#ffffff">
          <path
             style="opacity:1;fill:#ffffff;fill-opacity:1;stroke:none;stroke-opacity:1"
             d="m 45.029526,82.603333 35.206691,0 0,0.442916 -35.206691,0 z"
             id="path8095"
             inkscape:connector-curvature="0" />
          <path
             style="opacity:1;fill:#ffffff;fill-opacity:1;stroke:none;stroke-opacity:1"
             d="m 45.014767,84.926178 16.995044,0 0,0.22146 -16.995044,0 z"
             id="path8097"
             inkscape:connector-curvature="0" />
          <path
             style="opacity:1;fill:#ffffff;fill-opacity:1;stroke:none;stroke-opacity:1"
             d="m 44.967522,87 17.068863,0 0,0.22146 -17.068863,0 z"
             id="path8099"
             inkscape:connector-curvature="0" />
          <path
             style="opacity:1;fill:#ffffff;fill-opacity:1;stroke:none;stroke-opacity:1"
             d="m 44.947838,88.959648 17.047243,0 0,0.22146 -17.047243,0 z"
             id="path8101"
             inkscape:connector-curvature="0" />
          <path
             style="opacity:1;fill:#ffffff;fill-opacity:1;stroke:none;stroke-opacity:1"
             d="m 44.968506,90.959648 25.093504,0 0,0.22146 -25.093504,0 z"
             id="path8103"
             inkscape:connector-curvature="0" />
          <path
             style="opacity:1;fill:#ffffff;fill-opacity:1;stroke:none;stroke-opacity:1"
             d="m 45.006527,92.961891 16.995045,0 0,0.22146 -16.995045,0 z"
             id="path8105"
             inkscape:connector-curvature="0" />
          <path
             style="opacity:1;fill:#ffffff;fill-opacity:1;stroke:none;stroke-opacity:1"
             d="m 44.959282,95.035713 17.068863,0 0,0.22146 -17.068863,0 z"
             id="path8107"
             inkscape:connector-curvature="0" />
          <path
             style="opacity:1;fill:#ffffff;fill-opacity:1;stroke:none;stroke-opacity:1"
             d="m 44.939598,96.995361 17.047243,0 0,0.22146 -17.047243,0 z"
             id="path8109"
             inkscape:connector-curvature="0" />
        </g>
        <g
           transform="matrix(1.1627599,0,0,1.1627599,26.252768,-15.725918)"
           id="g8111"
           style="fill:#ffffff">
          <path
             style="opacity:1;fill:#ffffff;fill-opacity:1;stroke:none;stroke-opacity:1"
             d="m 45.095455,100.07587 35.206692,0 0,0.44291 -35.206692,0 z"
             id="path8113"
             inkscape:connector-curvature="0" />
          <path
             style="opacity:1;fill:#ffffff;fill-opacity:1;stroke:none;stroke-opacity:1"
             d="m 45.080696,102.39871 16.995045,0 0,0.22146 -16.995045,0 z"
             id="path8115"
             inkscape:connector-curvature="0" />
          <path
             style="opacity:1;fill:#ffffff;fill-opacity:1;stroke:none;stroke-opacity:1"
             d="m 45.033451,104.47253 17.068863,0 0,0.22146 -17.068863,0 z"
             id="path8117"
             inkscape:connector-curvature="0" />
          <path
             style="opacity:1;fill:#ffffff;fill-opacity:1;stroke:none;stroke-opacity:1"
             d="m 45.013767,106.43218 17.047243,0 0,0.22146 -17.047243,0 z"
             id="path8119"
             inkscape:connector-curvature="0" />
          <path
             style="opacity:1;fill:#ffffff;fill-opacity:1;stroke:none;stroke-opacity:1"
             d="m 45.034435,108.43218 25.093504,0 0,0.22146 -25.093504,0 z"
             id="path8121"
             inkscape:connector-curvature="0" />
          <path
             style="opacity:1;fill:#ffffff;fill-opacity:1;stroke:none;stroke-opacity:1"
             d="m 45.072456,110.43443 16.995045,0 0,0.22146 -16.995045,0 z"
             id="path8123"
             inkscape:connector-curvature="0" />
          <path
             style="opacity:1;fill:#ffffff;fill-opacity:1;stroke:none;stroke-opacity:1"
             d="m 45.025211,112.50825 17.068863,0 0,0.22146 -17.068863,0 z"
             id="path8125"
             inkscape:connector-curvature="0" />
          <path
             style="opacity:1;fill:#ffffff;fill-opacity:1;stroke:none;stroke-opacity:1"
             d="m 45.005527,114.4679 17.047244,0 0,0.22146 -17.047244,0 z"
             id="path8127"
             inkscape:connector-curvature="0" />
        </g>
        <g
           transform="matrix(1.1627599,0,0,1.1627599,26.374155,-16.211466)"
           id="g8129"
           style="fill:#ffffff">
          <path
             style="opacity:1;fill:#ffffff;fill-opacity:1;stroke:none;stroke-opacity:1"
             d="m 44.875683,116.94399 35.206692,0 0,0.44292 -35.206692,0 z"
             id="path8131"
             inkscape:connector-curvature="0" />
          <path
             style="opacity:1;fill:#ffffff;fill-opacity:1;stroke:none;stroke-opacity:1"
             d="m 44.860924,119.26684 16.995044,0 0,0.22146 -16.995044,0 z"
             id="path8133"
             inkscape:connector-curvature="0" />
          <path
             style="opacity:1;fill:#ffffff;fill-opacity:1;stroke:none;stroke-opacity:1"
             d="m 44.813679,121.34066 17.068863,0 0,0.22146 -17.068863,0 z"
             id="path8135"
             inkscape:connector-curvature="0" />
          <path
             style="opacity:1;fill:#ffffff;fill-opacity:1;stroke:none;stroke-opacity:1"
             d="m 44.793995,123.30031 17.047243,0 0,0.22146 -17.047243,0 z"
             id="path8137"
             inkscape:connector-curvature="0" />
          <path
             style="opacity:1;fill:#ffffff;fill-opacity:1;stroke:none;stroke-opacity:1"
             d="m 44.814663,125.30031 25.093504,0 0,0.22146 -25.093504,0 z"
             id="path8139"
             inkscape:connector-curvature="0" />
          <path
             style="opacity:1;fill:#ffffff;fill-opacity:1;stroke:none;stroke-opacity:1"
             d="m 44.852684,127.30255 16.995045,0 0,0.22146 -16.995045,0 z"
             id="path8141"
             inkscape:connector-curvature="0" />
          <path
             style="opacity:1;fill:#ffffff;fill-opacity:1;stroke:none;stroke-opacity:1"
             d="m 44.805439,129.37637 17.068863,0 0,0.22146 -17.068863,0 z"
             id="path8143"
             inkscape:connector-curvature="0" />
          <path
             style="opacity:1;fill:#ffffff;fill-opacity:1;stroke:none;stroke-opacity:1"
             d="m 44.785755,131.33603 17.047243,0 0,0.22146 -17.047243,0 z"
             id="path8145"
             inkscape:connector-curvature="0" />
        </g>
        <g
           id="g8147"
           transform="matrix(1.1627599,0,0,1.1627599,26.250706,42.130936)"
           style="fill:#ffffff">
          <path
             style="opacity:1;fill:#ffffff;fill-opacity:1;stroke:none;stroke-opacity:1"
             d="m 45.029526,82.603333 35.206691,0 0,0.442916 -35.206691,0 z"
             id="path8149"
             inkscape:connector-curvature="0" />
          <path
             style="opacity:1;fill:#ffffff;fill-opacity:1;stroke:none;stroke-opacity:1"
             d="m 45.014767,84.926178 16.995044,0 0,0.22146 -16.995044,0 z"
             id="path8151"
             inkscape:connector-curvature="0" />
          <path
             style="opacity:1;fill:#ffffff;fill-opacity:1;stroke:none;stroke-opacity:1"
             d="m 44.967522,87 17.068863,0 0,0.22146 -17.068863,0 z"
             id="path8153"
             inkscape:connector-curvature="0" />
          <path
             style="opacity:1;fill:#ffffff;fill-opacity:1;stroke:none;stroke-opacity:1"
             d="m 44.947838,88.959648 17.047243,0 0,0.22146 -17.047243,0 z"
             id="path8155"
             inkscape:connector-curvature="0" />
          <path
             style="opacity:1;fill:#ffffff;fill-opacity:1;stroke:none;stroke-opacity:1"
             d="m 44.968506,90.959648 25.093504,0 0,0.22146 -25.093504,0 z"
             id="path8157"
             inkscape:connector-curvature="0" />
          <path
             style="opacity:1;fill:#ffffff;fill-opacity:1;stroke:none;stroke-opacity:1"
             d="m 45.006527,92.961891 16.995045,0 0,0.22146 -16.995045,0 z"
             id="path8159"
             inkscape:connector-curvature="0" />
          <path
             style="opacity:1;fill:#ffffff;fill-opacity:1;stroke:none;stroke-opacity:1"
             d="m 44.959282,95.035713 17.068863,0 0,0.22146 -17.068863,0 z"
             id="path8161"
             inkscape:connector-curvature="0" />
          <path
             style="opacity:1;fill:#ffffff;fill-opacity:1;stroke:none;stroke-opacity:1"
             d="m 44.939598,96.995361 17.047243,0 0,0.22146 -17.047243,0 z"
             id="path8163"
             inkscape:connector-curvature="0" />
        </g>
        <g
           transform="matrix(1.1627599,0,0,1.1627599,26.250706,41.038452)"
           id="g8165"
           style="fill:#ffffff">
          <path
             style="opacity:1;fill:#ffffff;fill-opacity:1;stroke:none;stroke-opacity:1"
             d="m 45.095455,100.07587 35.206692,0 0,0.44291 -35.206692,0 z"
             id="path8167"
             inkscape:connector-curvature="0" />
          <path
             style="opacity:1;fill:#ffffff;fill-opacity:1;stroke:none;stroke-opacity:1"
             d="m 45.080696,102.39871 16.995045,0 0,0.22146 -16.995045,0 z"
             id="path8169"
             inkscape:connector-curvature="0" />
          <path
             style="opacity:1;fill:#ffffff;fill-opacity:1;stroke:none;stroke-opacity:1"
             d="m 45.033451,104.47253 17.068863,0 0,0.22146 -17.068863,0 z"
             id="path8171"
             inkscape:connector-curvature="0" />
          <path
             style="opacity:1;fill:#ffffff;fill-opacity:1;stroke:none;stroke-opacity:1"
             d="m 45.013767,106.43218 17.047243,0 0,0.22146 -17.047243,0 z"
             id="path8173"
             inkscape:connector-curvature="0" />
          <path
             style="opacity:1;fill:#ffffff;fill-opacity:1;stroke:none;stroke-opacity:1"
             d="m 45.034435,108.43218 25.093504,0 0,0.22146 -25.093504,0 z"
             id="path8175"
             inkscape:connector-curvature="0" />
          <path
             style="opacity:1;fill:#ffffff;fill-opacity:1;stroke:none;stroke-opacity:1"
             d="m 45.072456,110.43443 16.995045,0 0,0.22146 -16.995045,0 z"
             id="path8177"
             inkscape:connector-curvature="0" />
          <path
             style="opacity:1;fill:#ffffff;fill-opacity:1;stroke:none;stroke-opacity:1"
             d="m 45.025211,112.50825 17.068863,0 0,0.22146 -17.068863,0 z"
             id="path8179"
             inkscape:connector-curvature="0" />
          <path
             style="opacity:1;fill:#ffffff;fill-opacity:1;stroke:none;stroke-opacity:1"
             d="m 45.005527,114.4679 17.047244,0 0,0.22146 -17.047244,0 z"
             id="path8181"
             inkscape:connector-curvature="0" />
        </g>
        <g
           transform="matrix(1.1627599,0,0,1.1627599,26.372094,40.552905)"
           id="g8183"
           style="fill:#ffffff">
          <path
             style="opacity:1;fill:#ffffff;fill-opacity:1;stroke:none;stroke-opacity:1"
             d="m 44.875683,116.94399 35.206692,0 0,0.44292 -35.206692,0 z"
             id="path8185"
             inkscape:connector-curvature="0" />
          <path
             style="opacity:1;fill:#ffffff;fill-opacity:1;stroke:none;stroke-opacity:1"
             d="m 44.860924,119.26684 16.995044,0 0,0.22146 -16.995044,0 z"
             id="path8187"
             inkscape:connector-curvature="0" />
          <path
             style="opacity:1;fill:#ffffff;fill-opacity:1;stroke:none;stroke-opacity:1"
             d="m 44.813679,121.34066 17.068863,0 0,0.22146 -17.068863,0 z"
             id="path8189"
             inkscape:connector-curvature="0" />
          <path
             style="opacity:1;fill:#ffffff;fill-opacity:1;stroke:none;stroke-opacity:1"
             d="m 44.793995,123.30031 17.047243,0 0,0.22146 -17.047243,0 z"
             id="path8191"
             inkscape:connector-curvature="0" />
          <path
             style="opacity:1;fill:#ffffff;fill-opacity:1;stroke:none;stroke-opacity:1"
             d="m 44.814663,125.30031 25.093504,0 0,0.22146 -25.093504,0 z"
             id="path8193"
             inkscape:connector-curvature="0" />
          <path
             style="opacity:1;fill:#ffffff;fill-opacity:1;stroke:none;stroke-opacity:1"
             d="m 44.852684,127.30255 16.995045,0 0,0.22146 -16.995045,0 z"
             id="path8195"
             inkscape:connector-curvature="0" />
          <path
             style="opacity:1;fill:#ffffff;fill-opacity:1;stroke:none;stroke-opacity:1"
             d="m 44.805439,129.37637 17.068863,0 0,0.22146 -17.068863,0 z"
             id="path8197"
             inkscape:connector-curvature="0" />
          <path
             style="opacity:1;fill:#ffffff;fill-opacity:1;stroke:none;stroke-opacity:1"
             d="m 44.785755,131.33603 17.047243,0 0,0.22146 -17.047243,0 z"
             id="path8199"
             inkscape:connector-curvature="0" />
        </g>
        <g
           transform="translate(0.14560047,-50.549426)"
           id="g8201"
           style="fill:#ffffff">
          <path
             style="opacity:1;fill:#ffffff;fill-opacity:1;stroke:none;stroke-opacity:1"
             d="m 78.558273,58.440063 19.761156,0 0,0.257505 -19.761156,0 z"
             id="path8203"
             inkscape:connector-curvature="0" />
          <path
             style="opacity:1;fill:#ffffff;fill-opacity:1;stroke:none;stroke-opacity:1"
             d="m 78.503342,60.851421 19.846988,0 0,0.257505 -19.846988,0 z"
             id="path8205"
             inkscape:connector-curvature="0" />
          <path
             style="opacity:1;fill:#ffffff;fill-opacity:1;stroke:none;stroke-opacity:1"
             d="m 78.480453,63.13002 19.82185,0 0,0.257505 -19.82185,0 z"
             id="path8207"
             inkscape:connector-curvature="0" />
          <path
             style="opacity:1;fill:#ffffff;fill-opacity:1;stroke:none;stroke-opacity:1"
             d="m 78.504486,65.455544 29.177724,0 0,0.257504 -29.177724,0 z"
             id="path8209"
             inkscape:connector-curvature="0" />
          <path
             style="opacity:1;fill:#ffffff;fill-opacity:1;stroke:none;stroke-opacity:1"
             d="m 78.548691,67.783669 19.761156,0 0,0.257504 -19.761156,0 z"
             id="path8211"
             inkscape:connector-curvature="0" />
          <path
             style="opacity:1;fill:#ffffff;fill-opacity:1;stroke:none;stroke-opacity:1"
             d="m 78.493759,70.19503 19.846989,0 0,0.257505 -19.846989,0 z"
             id="path8213"
             inkscape:connector-curvature="0" />
          <path
             style="opacity:1;fill:#ffffff;fill-opacity:1;stroke:none;stroke-opacity:1"
             d="m 78.470871,72.473633 19.82185,0 0,0.257504 -19.82185,0 z"
             id="path8215"
             inkscape:connector-curvature="0" />
        </g>
      </g>
    </mask>
  </defs>
  <sodipodi:namedview
     id="base"
     pagecolor="#ffffff"
     bordercolor="#666666"
     borderopacity="1.0"
     inkscape:pageopacity="0.0"
     inkscape:pageshadow="2"
     inkscape:zoom="1.4"
     inkscape:cx="393.09726"
     inkscape:cy="716.53174"
     inkscape:document-units="px"
     inkscape:current-layer="layer1"
     showgrid="false"
     inkscape:window-width="1920"
     inkscape:window-height="1020"
     inkscape:window-x="0"
     inkscape:window-y="27"
     inkscape:window-maximized="1" />
  <metadata
     id="metadata7">
    <rdf:RDF>
      <cc:Work
         rdf:about="">
        <dc:format>image/svg+xml</dc:format>
        <dc:type
           rdf:resource="http://purl.org/dc/dcmitype/StillImage" />
        <dc:title />
      </cc:Work>
    </rdf:RDF>
  </metadata>
  <g
     inkscape:label="Livello 1"
     inkscape:groupmode="layer"
     id="layer1">
    <path
       inkscape:connector-curvature="0"
       style="opacity:1;fill:#263238;fill-opacity:0.94117647;stroke:none;stroke-opacity:1"
       d="m 306.18911,-225.47037 a 75,75 0 0 1 -75,75 75,75 0 0 1 -75,-75 75,75 0 0 1 75,-75 75,75 0 0 1 75,75 z"
       id="circle4308-9"
       clip-path="url(#clipPath6709-4)"
       transform="matrix(2.5047619,0,0,2.5047619,-241.21652,944.25463)"
       inkscape:transform-center-y="-110.71429"
       inkscape:export-xdpi="115"
       inkscape:export-ydpi="115" />
    <path
       inkscape:connector-curvature="0"
       id="path5926-5"
       d="m 427.37714,284.53581 a 38.458943,38.458943 0 0 1 -38.45894,38.45894 38.458943,38.458943 0 0 1 -38.45894,-38.45894 38.458943,38.458943 0 0 1 38.45894,-38.45894 38.458943,38.458943 0 0 1 38.45894,38.45894 z"
       style="opacity:1;fill:#f36c60;fill-opacity:0.94117647;stroke:none;stroke-opacity:1"
       inkscape:export-xdpi="115"
       inkscape:export-ydpi="115" />
    <g
       id="text5928-4"
       style="font-style:normal;font-weight:normal;font-size:40px;line-height:125%;font-family:sans-serif;letter-spacing:0px;word-spacing:0px;fill:#000000;fill-opacity:1;stroke:none;stroke-width:1px;stroke-linecap:butt;stroke-linejoin:miter;stroke-opacity:1"
       transform="matrix(2.5047619,0,0,2.5047619,-439.42799,876.21189)"
       inkscape:export-xdpi="115"
       inkscape:export-ydpi="115">
      <path
         style="fill:#000000;fill-opacity:1"
         inkscape:connector-curvature="0"
         id="path6230-2"
         d="m 311.96359,-210.84408 0,10.8789 10.87891,0 0,3.32031 -10.87891,0 0,10.87891 -3.28125,0 0,-10.87891 -10.87891,0 0,-3.32031 10.87891,0 0,-10.8789 3.28125,0 z" />
    </g>
    <path
       inkscape:connector-curvature="0"
       style="opacity:1;fill:#ffffff;fill-opacity:1;stroke:none;stroke-opacity:1"
       d="m 306.18911,-225.47037 a 75,75 0 0 1 -75,75 75,75 0 0 1 -75,-75 75,75 0 0 1 75,-75 75,75 0 0 1 75,75 z"
       id="circle4308-9-6"
       clip-path="url(#clipPath6709-4-4)"
       transform="matrix(2.5047619,0,0,2.5047619,-241.93082,944.96894)"
       inkscape:transform-center-y="-110.71429"
       inkscape:export-xdpi="115"
       inkscape:export-ydpi="115"
       mask="url(#mask8035)" />
  </g>
</svg>
